<svg width="82" height="38" viewBox="0 0 82 38" fill="none" xmlns="http://www.w3.org/2000/svg">
<path d="M50.3389 22.2466L47.9009 22.1026C47.6176 22.0859 47.3743 22.3021 47.3575 22.5855C47.3408 22.8689 47.557 23.1122 47.8404 23.1289L50.2783 23.2728C50.5617 23.2896 50.805 23.0734 50.8217 22.79C50.8385 22.5066 50.6223 22.2633 50.3389 22.2466Z" fill="black"/>
<path d="M41.9706 21.1475H39.5284C39.2445 21.1475 39.0144 21.3776 39.0144 21.6615C39.0144 21.9454 39.2445 22.1755 39.5284 22.1755H41.9706C42.2545 22.1755 42.4847 21.9454 42.4847 21.6615C42.4847 21.3776 42.2545 21.1475 41.9706 21.1475Z" fill="black"/>
<ellipse cx="19.4192" cy="32.3256" rx="4.64675" ry="4.68735" fill="black"/>
<path d="M38.9962 0C43.6258 1.55325e-05 46.7882 0.372426 49.5206 1.3125C52.2425 2.24908 54.3674 3.69931 56.8888 5.44336C59.6935 7.3835 62.4197 10.3315 64.6749 12.6523C65.85 13.8617 66.9066 14.9164 67.878 15.7344C68.8828 16.5803 69.5934 16.9956 70.0538 17.1387C71.8387 17.6927 73.9861 18.2962 75.7013 18.9922C76.5741 19.3464 77.468 19.7752 78.2345 20.3154C78.9382 20.8115 79.7144 21.5277 80.1632 22.5449L80.2491 22.752L80.4122 23.1992C80.8208 24.3604 81.3878 26.3094 81.4845 28.2217C81.5392 29.3044 81.4598 30.6351 80.8995 31.8467C80.2769 33.1927 79.111 34.259 77.4064 34.6172C77.0165 34.699 76.4999 34.7327 76.0636 34.7539C75.5605 34.7784 74.9236 34.7951 74.1778 34.8066C74.0167 34.8091 73.8496 34.8095 73.6769 34.8115C73.9803 34.0422 74.1495 33.2036 74.1495 32.3252C74.1495 31.4363 73.9765 30.5883 73.6661 29.8115C73.8158 29.8098 73.9607 29.8098 74.1007 29.8076C74.8217 29.7965 75.3966 29.7804 75.8204 29.7598C76.1451 29.7439 76.3109 29.7299 76.3683 29.7246C76.4393 29.5538 76.526 29.1611 76.4913 28.4746C76.4217 27.0974 75.9313 25.4879 75.6026 24.6084C75.5705 24.5745 75.498 24.5034 75.3546 24.4023C75.0326 24.1754 74.5323 23.9139 73.8204 23.625C72.3656 23.0347 70.5766 22.5361 68.5724 21.9141C67.1382 21.4689 65.8074 20.5271 64.6583 19.5596C63.4755 18.5636 62.2639 17.3459 61.089 16.1367C58.6437 13.6203 56.3406 11.1432 54.044 9.55469C51.4644 7.77034 49.872 6.72074 47.8937 6.04004C45.9256 5.36295 43.4028 5.00002 38.9962 5H8.79991C7.48636 5.0002 6.39672 6.01802 6.3087 7.33301L5.00303 26.8652C4.94579 27.724 5.60558 28.4405 6.44541 28.4639C8.77259 28.5281 11.2468 28.5932 13.8224 28.6621C13.1429 29.7163 12.7472 30.9741 12.7472 32.3252C12.7472 32.7746 12.7918 33.2139 12.8751 33.6387C10.5899 33.5773 8.38984 33.5194 6.30772 33.4619C2.61026 33.3597 -0.230408 30.2024 0.0147507 26.5322L1.32041 7C1.58357 3.06313 4.84993 0.000204841 8.79991 0H38.9962ZM25.1954 28.958C33.5761 29.1701 42.3121 29.379 50.172 29.5371C54.1707 29.6175 57.9401 29.6838 61.3185 29.7334C60.9881 30.5311 60.8058 31.4067 60.8058 32.3252C60.8058 33.1734 60.9623 33.9849 61.2462 34.7324C57.8536 34.6826 54.074 34.6166 50.0714 34.5361C42.4567 34.383 34.0231 34.1825 25.8868 33.9775C26.0191 33.4489 26.0909 32.8953 26.0909 32.3252C26.0909 31.0982 25.7642 29.9485 25.1954 28.958Z" fill="black"/>
<ellipse cx="67.4773" cy="32.3256" rx="4.64675" ry="4.68735" fill="black"/>
<path d="M47.0228 11.045C47.0228 9.73694 48.3326 8.81003 49.5237 9.35066C51.7436 10.3583 56.7913 15.2135 60.804 19.1749C61.4394 19.8021 60.9937 20.8829 60.1009 20.8829H57.6693C55.3246 20.8828 51.6022 19.8496 48.9788 18.9825C47.7935 18.5907 47.0228 17.4682 47.0228 16.2198V11.045Z" fill="#333333"/>
<path d="M23.2367 16.4629C23.1494 17.4987 22.2832 18.295 21.2438 18.295H11.0687C10.1718 18.295 9.33413 17.8463 8.83722 17.0997C8.20746 16.1533 7.96241 15.0019 8.15168 13.8809L8.6634 10.8516C8.90716 9.40796 10.1573 8.35066 11.6214 8.35066H21.7446C22.9154 8.35066 23.8359 9.35191 23.7376 10.5186L23.2367 16.4629Z" fill="#333333"/>
<path d="M40.1722 8.35066C41.8289 8.35066 43.172 9.69395 43.1722 11.3507V15.295C43.1721 16.9517 41.829 18.295 40.1722 18.295H27.7648C26.594 18.295 25.6735 17.2938 25.7718 16.1271L26.2727 10.1827C26.36 9.14694 27.2262 8.35066 28.2656 8.35066H40.1722Z" fill="#333333"/>
</svg>
